<svg width="44" height="34" viewBox="0 0 44 34" fill="none" xmlns="http://www.w3.org/2000/svg">
<path d="M19.512 0.0014959C19.507 0.00435094 19.5029 0.0125486 19.5016 0.0233973C19.4897 0.0930942 19.504 0.194159 19.5113 0.265558C19.5309 0.48193 19.5592 0.702945 19.5894 0.929144C19.6445 1.34074 19.7102 1.76738 19.7839 2.21081C20.1135 4.19263 20.5918 6.3981 21.1428 8.66587C21.7264 11.0672 22.3898 13.5228 22.9365 15.4792C22.6801 14.7929 22.3578 14.0643 21.966 13.3336C21.4714 12.4118 20.9057 11.5589 20.3039 10.832C20.0859 10.5687 19.8677 10.3275 19.6528 10.1108C19.6203 10.0781 19.5879 10.0459 19.5557 10.0144C19.5509 10.0098 19.5457 10.0045 19.5409 9.99992C19.5398 9.99907 19.5387 9.99844 19.538 9.99752C19.5385 9.99858 19.539 9.99963 19.5388 10.0008C19.541 10.0066 19.543 10.0126 19.5453 10.0185C19.5594 10.0573 19.5737 10.0964 19.5889 10.136C19.6878 10.3982 19.8061 10.6777 19.9407 10.9719C20.2878 11.73 20.7396 12.5723 21.2225 13.4193C20.8722 12.9958 20.4973 12.5748 20.098 12.1594C19.3666 11.3988 18.5922 10.6968 17.8029 10.0657C17.37 9.71631 16.9357 9.39042 16.5058 9.08975C16.0691 8.78435 15.6428 8.50907 15.235 8.26529C15.1744 8.2291 15.1143 8.19364 15.0547 8.15889C15.0452 8.15414 15.0361 8.14906 15.0277 8.14367C15.0263 8.14276 15.0249 8.14198 15.0235 8.14103C15.0248 8.14203 15.0258 8.1431 15.0269 8.14417C15.0338 8.15051 15.0401 8.1572 15.0458 8.16424C15.0891 8.20891 15.1331 8.25411 15.1778 8.2998C15.4794 8.60786 15.812 8.93667 16.1703 9.28613C16.8662 9.96468 17.5951 10.6606 18.291 11.3392C18.6767 11.7128 19.0654 12.0933 19.4569 12.4839C19.4576 12.4848 19.4583 12.4856 19.459 12.4865C20.7897 13.814 21.8773 14.9855 22.8731 16.1662C23.0058 16.3766 23.1346 16.5766 23.2583 16.7668C23.1876 16.7746 23.1166 16.783 23.0453 16.7918C22.9806 16.7781 23.0705 16.7972 23.0058 16.7834C22.97 16.7534 22.9326 16.7224 22.8937 16.6904C22.1741 15.6755 21.1388 14.5582 19.7846 13.4944C19.4808 13.2558 19.17 13.0271 18.8543 12.8089C18.1068 12.2884 17.3413 11.8327 16.5923 11.4498C16.2061 11.2523 15.8309 11.0776 15.4734 10.9262C15.4197 10.9035 15.3665 10.8813 15.3137 10.8596C15.3057 10.8563 15.2978 10.8531 15.2899 10.8499C15.288 10.8494 15.2867 10.849 15.2855 10.8483C15.285 10.848 15.2848 10.8481 15.2844 10.8475C15.2849 10.8478 15.2852 10.8477 15.2855 10.8483C15.2868 10.849 15.2874 10.85 15.2883 10.8509C15.2935 10.8552 15.3006 10.861 15.3058 10.8654C15.3444 10.8973 15.3837 10.9297 15.4237 10.9623C15.6901 11.1798 15.9845 11.4105 16.3024 11.6543C17.1753 12.3237 18.1966 13.0714 19.2234 13.8524C19.2234 13.8525 19.2235 13.8524 19.2234 13.8524C19.2233 13.8524 19.2669 13.8853 19.2668 13.8853C20.087 14.506 20.82 15.0796 21.5394 15.6701C21.3885 15.5658 21.2497 15.4725 21.1313 15.3945C20.5825 15.0326 20.0214 14.6965 19.4589 14.3865C16.1455 12.5469 12.5004 11.4084 9.49928 10.7898C12.1892 11.6698 16.1793 12.887 19.5581 14.6452C20.0319 14.89 20.5059 15.1518 20.9733 15.4315C21.6097 15.8124 22.063 16.1265 22.2113 16.2297C22.3752 16.3683 22.5317 16.5022 22.6838 16.6332C21.7907 16.2105 20.8519 15.8625 19.9167 15.5809C17.0925 14.7224 14.0792 14.3607 11.4071 14.2501C11.021 14.2321 10.6364 14.2192 10.2536 14.211C9.63013 14.2001 9.03076 14.1994 8.44315 14.2115C8.36007 14.2132 8.27796 14.2149 8.19515 14.2181C8.1829 14.2187 8.17067 14.2192 8.1585 14.2198C8.15644 14.2198 8.15454 14.22 8.15251 14.2202C8.15249 14.2202 8.15253 14.2202 8.15251 14.2202C8.1546 14.2202 8.1564 14.2201 8.15842 14.2202C8.17035 14.2201 8.18205 14.2204 8.19369 14.2209C8.27381 14.2228 8.3531 14.226 8.43348 14.2293C8.99865 14.2522 9.58429 14.286 10.1861 14.3274C10.6235 14.3556 11.0669 14.387 11.515 14.4223C14.1016 14.6133 17.1442 14.9518 19.9799 15.7457C20.9362 16.0109 21.8949 16.3394 22.8049 16.7423C22.6621 16.7139 22.5195 16.6877 22.3769 16.6631C21.6367 16.4455 20.8814 16.2781 20.1362 16.1536C17.9724 15.7873 15.7736 15.7365 13.7795 15.8592C13.3319 15.889 12.8981 15.9254 12.4821 15.9663L12.48 15.9665C12.4204 15.9721 12.361 15.9779 12.302 15.9837C12.294 15.9845 12.2832 15.9855 12.2752 15.9863C12.2736 15.9868 12.2721 15.9869 12.2706 15.987C12.272 15.9869 12.2738 15.9869 12.2751 15.9869C12.2838 15.9867 12.2923 15.9866 12.3009 15.9864C12.358 15.9853 12.4155 15.9841 12.4732 15.9831C12.4732 15.9831 12.4924 15.9827 12.4924 15.9827C12.8892 15.9742 13.3039 15.9684 13.7311 15.9671C15.6767 15.9503 17.9626 15.985 20.1923 16.3C20.6842 16.3685 21.1818 16.453 21.6778 16.5565C21.1922 16.4915 20.7095 16.4457 20.2366 16.4156C17.5889 16.242 14.9787 16.5059 13.0026 16.7973C9.96058 17.2376 7.29635 17.89 5.65341 18.3284C3.94675 18.7839 2.61773 19.2042 1.90608 19.439C0.335242 19.9571 0.322477 20.0235 0.322477 20.0235C4.47874 18.6938 8.77939 17.5402 13.0631 16.8939C13.0631 16.8939 13.0631 16.8939 13.0631 16.8939C15.4521 16.5272 17.9028 16.3254 20.2515 16.4545C20.8138 16.4844 21.3722 16.5352 21.9206 16.6089C22.2675 16.6858 22.6141 16.7724 22.9574 16.87C22.967 16.8783 22.9724 16.8829 22.982 16.8913C22.6031 16.8862 22.1764 16.893 21.7016 16.9197C21.273 16.893 20.8428 16.8804 20.4147 16.8803C18.0685 16.8767 15.7011 17.2193 13.5525 17.6753C9.3995 18.5487 5.47721 19.9107 2.21757 21.2594C5.47331 20.1033 9.50193 18.7363 13.6474 17.8269C15.7682 17.3578 18.1095 16.9802 20.4375 16.9396C20.7431 16.934 21.05 16.9346 21.3568 16.942C21.0546 16.9641 20.7585 16.9925 20.4704 17.0255C20.1128 17.0662 19.7861 17.1115 19.501 17.1551C17.6205 17.4428 15.7767 17.9321 14.0642 18.4923C9.96879 19.8271 6.13163 21.6537 2.80839 23.4932C1.94114 23.9764 1.13935 24.4384 0.371198 24.9061C0.263436 24.9717 0.157731 25.0359 0.0528936 25.1036C0.0380364 25.1132 0.0230611 25.1228 0.00848788 25.133C0.00562334 25.1351 0.00201606 25.1365 0 25.1393C0.00214731 25.1367 0.00556416 25.1351 0.00868934 25.1335C0.0235345 25.124 0.0386621 25.1152 0.0538103 25.1064C0.160453 25.0443 0.267454 24.9858 0.37687 24.9258C1.15803 24.4971 1.96284 24.0754 2.83942 23.6265C6.10907 21.9403 10.0174 20.0581 14.1649 18.653C15.9076 18.0607 17.7466 17.5471 19.6099 17.2341C19.893 17.1866 20.1903 17.1414 20.4992 17.1007C20.9542 17.0404 21.4186 16.9929 21.8878 16.9621C22.1074 16.9734 22.3118 16.9876 22.5008 17.0037C22.2374 17.0536 21.97 17.111 21.6987 17.1751C21.3299 17.2302 20.9638 17.2954 20.602 17.3689C18.4717 17.801 16.4225 18.522 14.5747 19.3072C11.0779 20.7913 7.90194 22.6215 5.2383 24.3735C7.93647 22.7758 11.1784 20.9429 14.6545 19.4347C16.484 18.6401 18.5108 17.8909 20.6219 17.4207C20.8121 17.3782 21.0036 17.3381 21.1961 17.3004C21.0106 17.3494 20.8238 17.4016 20.6357 17.4569C18.7749 18.0033 16.8906 18.8144 14.9247 19.8661C13.9691 20.3771 13.0178 20.928 12.0688 21.517C9.16683 23.3182 6.51464 25.3367 4.25645 27.1994C3.75286 27.6148 3.26934 28.0222 2.81481 28.4106C2.56497 28.624 2.31887 28.8367 2.08536 29.0375C1.98448 29.123 1.9124 29.1895 1.83127 29.253C1.82274 29.2594 1.812 29.2679 1.80936 29.2689C1.80454 29.2708 1.80697 29.266 1.80899 29.2617C1.79984 29.2713 1.78971 29.2818 1.78614 29.288C1.7857 29.289 1.78619 29.2895 1.78721 29.2895C1.7872 29.2895 1.78721 29.2896 1.78721 29.2895C1.79029 29.2895 1.79939 29.2845 1.81171 29.2759C1.8903 29.2226 2.00684 29.1299 2.08839 29.0663C2.33849 28.8725 2.58849 28.6764 2.85189 28.4708C3.32356 28.1026 3.82686 27.7109 4.34259 27.3142C6.66017 25.5314 9.32866 23.565 12.2158 21.7723C13.1678 21.1811 14.1183 20.6243 15.0725 20.102C17.0156 19.0383 18.856 18.1992 20.6885 17.5945C21.2772 17.4003 21.8505 17.2358 22.4101 17.1006C22.4951 17.0893 22.5792 17.0788 22.6625 17.069C22.0559 17.2669 21.4274 17.5195 20.7786 17.8295C20.0387 18.1833 19.3021 18.5973 18.5714 19.0685C17.5324 19.7386 16.584 20.4737 15.7552 21.1919C15.6145 21.3138 15.4777 21.4348 15.3449 21.5547C15.0113 21.8559 14.7062 22.1469 14.4322 22.4216C14.3908 22.4632 14.3501 22.5043 14.3102 22.545C14.3041 22.5513 14.2979 22.5575 14.2919 22.5637C14.2909 22.5649 14.2901 22.5663 14.2888 22.5672C14.29 22.5663 14.2914 22.5653 14.2928 22.5645C14.2999 22.5592 14.3072 22.5542 14.3144 22.5491C14.3162 22.5478 14.4561 22.4471 14.4579 22.4458C14.7784 22.215 15.1237 21.9641 15.4909 21.6984C15.4626 21.7189 15.9196 21.3888 15.8913 21.4093C16.7437 20.7952 17.6563 20.1474 18.6313 19.5131C18.0613 19.9503 17.5044 20.416 16.9557 20.9078C16.6586 21.174 16.3681 21.4442 16.0838 21.7167C14.8766 22.8732 13.8115 24.0483 12.901 25.1573C12.4961 25.6504 12.1271 26.1241 11.7974 26.5663C11.7484 26.6321 11.7002 26.6971 11.653 26.7614C11.6463 26.7711 11.6394 26.7807 11.6322 26.7901C11.631 26.7916 11.63 26.7934 11.6288 26.7949C12.5074 25.794 13.4117 24.8194 14.352 23.8781C13.4131 24.818 12.5101 25.7911 11.6328 26.7905C11.6409 26.7817 11.6491 26.7728 11.6578 26.7642C11.7043 26.7148 11.7812 26.6332 11.8277 26.5839C12.2122 26.1757 12.6329 25.7298 13.0777 25.2658C14.0547 24.2466 15.122 23.1666 16.3019 22.0648C16.6237 21.7641 16.9503 21.4646 17.2822 21.1681C17.2833 21.1672 17.2844 21.1662 17.2855 21.1653C18.519 20.0637 19.7043 19.1148 20.9497 18.2759C21.454 17.9367 21.9456 17.6294 22.4344 17.3489C22.7504 17.1969 23.0538 17.058 23.3465 16.9303C23.3544 16.958 23.3622 16.9855 23.3701 17.0137C23.3494 17.0481 23.3277 17.0841 23.3056 17.1214C23.2584 17.1525 23.2093 17.1853 23.159 17.2193C22.4636 17.5447 21.7521 17.9549 21.019 18.4567C20.1733 19.0368 19.3564 19.7049 18.5613 20.4565C17.8462 21.1326 17.1893 21.8379 16.5938 22.5308C16.2452 22.9358 15.9213 23.3342 15.6236 23.7199C15.3298 24.1004 15.0645 24.4647 14.8293 24.8052C14.794 24.8564 14.7592 24.9069 14.7253 24.957C14.7201 24.9646 14.7151 24.972 14.7099 24.9796C14.7093 24.9809 14.7085 24.9823 14.7075 24.9836C14.7085 24.9823 14.7097 24.9812 14.7108 24.9799C14.7164 24.9739 14.7248 24.9653 14.7304 24.9593C14.7349 24.9546 14.8569 24.8262 14.8614 24.8215C15.4685 24.1819 15.2032 24.4607 15.8103 23.8211C16.1184 23.4975 16.4385 23.1635 16.774 22.8186C17.4503 22.1226 18.1596 21.4052 18.9112 20.6986C18.9112 20.6986 18.9113 20.6986 18.9112 20.6986C19.6597 19.9947 20.388 19.3596 21.1377 18.7665C21.2846 18.6506 21.4305 18.5374 21.5758 18.4267C21.4156 18.5627 21.272 18.6885 21.1525 18.7952C21.1525 18.7952 21.1497 18.7978 21.1497 18.7978C19.5365 20.2408 18.2255 21.8581 17.1193 23.3698C15.5768 25.4713 14.3578 27.568 13.4196 29.4443C14.4951 27.653 15.759 25.5877 17.2326 23.5507C18.3277 22.0317 19.6028 20.38 21.1735 18.8962C21.1735 18.8962 21.1837 18.8866 21.1837 18.8865C21.7878 18.3178 22.2465 17.9473 22.4237 17.8054C22.6357 17.6564 22.8427 17.5157 23.0465 17.3814C22.4093 18.0181 21.8526 18.6841 21.358 19.3412C19.9531 21.2109 18.9568 23.2205 18.1642 25.0382C17.8157 25.8296 17.5061 26.6117 17.2305 27.3791C17.0508 27.8862 16.8881 28.3731 16.7414 28.8489C16.7206 28.9162 16.7002 28.9827 16.681 29.0494C16.6783 29.0592 16.6755 29.069 16.6728 29.0787C16.6725 29.0804 16.672 29.0819 16.6716 29.0835C16.6715 29.0836 16.6716 29.0835 16.6716 29.0835C16.6719 29.0818 16.6725 29.0803 16.6731 29.0787C16.6762 29.069 16.6797 29.0593 16.6834 29.0496C16.7071 28.9833 16.7319 28.9173 16.7571 28.8505C16.9344 28.3802 17.1282 27.8934 17.3354 27.3931C17.6262 26.6833 17.938 25.9551 18.2754 25.2157C19.0984 23.3942 20.0666 21.3695 21.4094 19.4754C21.9342 18.7365 22.5269 17.9872 23.2158 17.2739C23.153 17.3823 23.0923 17.4904 23.0332 17.5979C22.4552 18.3747 21.98 19.1673 21.5817 19.925C20.8303 21.3563 20.3177 22.787 19.9596 24.1005C19.8703 24.4365 19.7895 24.7639 19.7163 25.0786C19.7058 25.1239 19.6954 25.169 19.6852 25.2138C19.6836 25.2206 19.682 25.2274 19.6805 25.2342C19.6805 25.2355 19.6801 25.2365 19.6797 25.2377C19.6802 25.2366 19.6804 25.2352 19.681 25.2342C19.6818 25.2317 19.6868 25.2165 19.6876 25.214C19.6785 25.2415 19.7408 25.0525 19.7317 25.08C19.8348 24.7684 19.9446 24.4436 20.0611 24.1118C20.4878 22.8715 20.991 21.5011 21.6591 20.127C21.9754 19.4772 22.3356 18.7991 22.757 18.1229C22.3544 18.9218 22.036 19.7088 21.7775 20.436C20.6934 23.4872 20.3742 26.7531 20.2241 28.3269C19.9578 30.9103 20.0055 32.8331 20.0219 33.2882C20.0474 33.9973 20.0843 34 20.0843 34C20.0823 32.1713 20.1532 30.3419 20.3352 28.5042C20.5781 25.8377 20.922 23.1585 21.8109 20.5231C22.1028 19.6579 22.448 18.7902 22.8745 17.9379C23.0418 17.6768 23.2195 17.4145 23.4093 17.1527C23.4152 17.1731 23.421 17.1946 23.4268 17.2144C23.3629 17.468 23.298 17.7462 23.235 18.0485C22.753 19.2167 22.4227 20.3855 22.1815 21.4899C21.4692 24.745 21.5259 28.0557 21.6774 30.6471C21.7048 31.2093 21.7442 31.7581 21.7938 32.2918C21.7837 31.806 21.7768 31.309 21.7749 30.8028C21.7386 28.2189 21.6612 24.9468 22.2702 21.7216C22.4766 20.6258 22.7611 19.4642 23.1848 18.2969C23.0869 18.7961 23.0167 19.2485 22.9658 19.6294C22.8125 20.774 22.7497 21.8919 22.7419 22.9521C22.7142 26.1242 23.2368 29.1574 23.8894 31.7708C24.0535 32.418 24.2162 33.0184 24.3923 33.599C24.417 33.6804 24.4411 33.7602 24.4681 33.8398C24.4719 33.851 24.4757 33.8624 24.4801 33.8735C24.4808 33.8758 24.4813 33.8783 24.483 33.8799C24.4814 33.8783 24.4812 33.8756 24.4805 33.8734C24.4767 33.8621 24.4736 33.8507 24.4704 33.8393C24.4482 33.7588 24.4289 33.6783 24.4089 33.596C24.2666 33.009 24.1351 32.4063 24.0008 31.7545C23.4885 29.3109 22.9954 26.4644 22.9315 23.4468C22.903 22.1903 22.9391 20.8779 23.0891 19.5424C23.1465 19.032 23.2244 18.4833 23.3313 17.9073C23.3943 17.7459 23.4559 17.595 23.5152 17.455C23.5299 17.6396 23.547 17.8297 23.565 18.0206C23.3545 21.2975 23.7391 24.3736 24.258 26.9078C24.4916 28.062 24.7689 29.1608 25.0694 30.1947C24.8668 29.3447 24.6715 28.4524 24.4935 27.5223C23.99 24.9282 23.5373 21.7568 23.5995 18.3766C23.814 20.4567 24.2037 22.744 24.7536 25.1831C25.268 27.4649 25.867 29.6352 26.4427 31.5582C26.5704 31.985 26.6971 32.3996 26.818 32.7901C26.883 33.0005 26.9524 33.2224 27.014 33.4194C27.0408 33.506 27.0616 33.57 27.0818 33.6376C27.0838 33.6446 27.0866 33.6536 27.0869 33.6554C27.0876 33.6587 27.0862 33.6555 27.0848 33.6528C27.0877 33.6614 27.091 33.6708 27.0929 33.6751C27.0931 33.6758 27.0933 33.6758 27.0933 33.6751C27.0933 33.6751 27.0933 33.6752 27.0933 33.6751C27.0932 33.6735 27.0915 33.6667 27.0888 33.6569C27.0719 33.5957 27.042 33.4956 27.0224 33.4289C26.9625 33.2248 26.8993 33.0082 26.8373 32.7922C26.7237 32.3965 26.607 31.9805 26.4896 31.5491C25.9524 29.5753 25.4479 27.463 24.9744 25.1337C24.5894 23.2402 24.2767 21.4629 23.9947 19.7645C24.0522 20.0036 24.1104 20.2405 24.1732 20.4833C24.4239 21.4514 24.7124 22.4409 24.9626 23.2638C25.055 23.5681 25.1454 23.8597 25.2283 24.1225C25.2323 24.1354 25.2617 24.2281 25.2658 24.2409C25.2676 24.2469 25.2696 24.2529 25.2714 24.2588C25.2719 24.2599 25.2724 24.2608 25.2726 24.2619C25.2724 24.2607 25.2721 24.2596 25.2724 24.2586C25.2717 24.2524 25.2707 24.2461 25.2699 24.2399C25.2647 24.1992 25.2594 24.1579 25.254 24.1161C25.218 23.8405 25.1758 23.5392 25.1282 23.223C25.0058 22.4088 24.8443 21.4738 24.6446 20.5442C24.8113 21.0351 24.9759 21.5361 25.1342 22.0453C25.592 23.5176 25.9416 24.8821 26.1733 26.1831C26.2552 26.6428 26.3185 27.0736 26.3659 27.4762L26.366 27.4768C26.3719 27.536 26.3775 27.5944 26.3828 27.6521C26.3837 27.6606 26.3844 27.6692 26.3851 27.6778C26.3853 27.6791 26.3854 27.6807 26.3856 27.6821C26.3752 27.5408 26.364 27.3995 26.352 27.2583C26.2747 26.4319 26.1707 25.6093 26.0413 24.791C26.1707 25.6092 26.2747 26.4316 26.3519 27.258C26.364 27.3993 26.3752 27.5406 26.3856 27.6821C26.3855 27.6804 26.3854 27.6792 26.3854 27.6777C26.3847 27.669 26.3842 27.6602 26.3835 27.6514C26.3795 27.5924 26.3753 27.5324 26.371 27.4718C26.3606 27.3255 26.3491 27.1748 26.3366 27.0203C26.3124 26.7432 26.2844 26.4533 26.2513 26.1528C26.1065 24.8381 25.8756 23.4135 25.4852 21.9354C25.4851 21.9349 25.485 21.9343 25.485 21.9338C25.0498 20.2867 24.476 18.8041 23.8127 17.5322C23.7474 17.3514 23.6807 17.1855 23.6127 17.0198C23.616 17.0176 23.6195 17.0156 23.6228 17.0136C23.6193 17.015 23.6157 17.0167 23.612 17.018C23.5913 16.9676 23.5708 16.9112 23.5499 16.8622C23.5865 16.8557 23.6233 16.8495 23.6605 16.8433C23.7066 16.86 23.7544 16.8776 23.8039 16.8962C23.832 16.9309 23.8611 16.9671 23.891 17.0046C24.3609 18.1261 24.9578 19.4188 25.4877 20.8789C25.7036 21.4738 25.8931 22.0552 26.0537 22.6307C26.1855 23.1232 26.2914 23.5928 26.3746 24.0406C26.4399 24.392 26.4891 24.7195 26.5258 25.0231C26.5312 25.0685 26.5364 25.1135 26.5413 25.1576C26.542 25.1643 26.5427 25.1709 26.5436 25.1776C26.5438 25.1788 26.5438 25.1799 26.5441 25.181C26.5441 25.1815 26.5441 25.1815 26.5442 25.1822C26.5442 25.1817 26.5441 25.1817 26.5441 25.181C26.5439 25.1799 26.5441 25.1787 26.5441 25.1774C26.544 25.1704 26.5439 25.1634 26.5436 25.1564C26.5425 25.11 26.5413 25.063 26.54 25.0154C26.5305 24.6985 26.5126 24.3562 26.4816 23.9937C26.4027 23.0717 26.2435 22.0702 25.951 21.036C25.9236 20.9416 25.8952 20.8473 25.8658 20.753C25.8657 20.7531 25.8658 20.753 25.8658 20.753C25.587 19.861 25.232 19.0326 24.8187 18.2799C24.9111 18.4204 24.9904 18.5459 25.058 18.6553C25.3792 19.1754 25.6594 19.698 25.8985 20.2216C27.2369 23.2122 27.2141 26.0689 26.2517 28.1611C26.241 28.1848 26.2302 28.2085 26.2194 28.232C26.233 28.2007 26.2465 28.1692 26.26 28.1377C27.2439 25.8632 27.3946 22.9168 25.8755 19.8648C25.6718 19.4628 25.4409 19.0631 25.1825 18.6658C24.828 18.1208 24.5003 17.7029 24.4033 17.5793C24.295 17.4102 24.1851 17.2479 24.0744 17.0933C24.7321 17.6038 25.3097 18.1423 25.8008 18.706C27.2177 20.349 27.8863 22.137 27.8113 23.7167C27.7947 24.2782 27.7123 24.8278 27.5864 25.3525C27.495 25.737 27.38 26.1047 27.255 26.447C27.2373 26.4955 27.2192 26.5437 27.2014 26.5911C27.1989 26.598 27.1963 26.605 27.1937 26.6119C27.1933 26.613 27.1928 26.6141 27.1926 26.6152C27.1931 26.6143 27.1935 26.6127 27.194 26.6118C27.1967 26.6047 27.1997 26.5976 27.2027 26.5904C27.2225 26.5419 27.2427 26.4923 27.2625 26.4426C27.4021 26.0914 27.5309 25.7154 27.6362 25.3211C27.794 24.7249 27.8951 24.0934 27.9057 23.4477C27.9585 21.8677 27.2642 20.0982 25.7884 18.5126C25.2725 17.9633 24.6684 17.4471 23.9857 16.9655C24.1133 17.0155 24.2387 17.0665 24.3616 17.1188C24.8722 17.4177 25.3389 17.7357 25.7599 18.071C27.2323 19.2513 28.131 20.6162 28.4656 21.8521C28.4872 21.9252 28.5074 21.9982 28.5264 22.071C28.5978 22.339 28.6497 22.6023 28.6869 22.8562C28.6922 22.8927 28.6973 22.9291 28.7021 22.9653C28.7028 22.9706 28.7035 22.9764 28.7042 22.9817C28.7044 22.9826 28.7044 22.9836 28.7047 22.9845C28.7048 22.9833 28.7046 22.9824 28.7046 22.9815C28.7043 22.9761 28.7041 22.9699 28.7036 22.9645C28.7018 22.9268 28.6997 22.889 28.6972 22.8509C28.68 22.5866 28.6474 22.3118 28.5943 22.031C28.5728 21.9203 28.5479 21.8093 28.5195 21.6983C28.2205 20.4227 27.3108 19.0526 25.7496 17.9124C25.4978 17.7295 25.23 17.5538 24.9468 17.3856C25.2267 17.5222 25.4922 17.6656 25.7434 17.8152C27.3157 18.7564 28.2952 19.8998 28.7807 20.9539C29.4476 22.323 29.5404 23.7846 29.5336 24.7237C29.5582 25.8635 29.377 27.0866 29.2818 27.7326C29.1445 28.6643 29.1071 28.8611 29.0384 29.398C28.9273 30.2071 28.9468 30.2191 28.9468 30.2191C29.0073 29.9293 29.0631 29.64 29.1133 29.351C29.3827 27.7219 29.6839 26.1355 29.633 24.612C29.6262 23.3769 29.426 22.044 28.8167 20.8513C28.2501 19.6809 27.1564 18.594 25.7408 17.7752C25.426 17.594 25.0957 17.4265 24.7524 17.2722C24.4715 17.1127 24.1765 16.9604 23.868 16.8155C23.8669 16.8136 23.8652 16.812 23.864 16.8102C23.8822 16.8074 23.9008 16.8047 23.9187 16.8018C24.2626 16.8566 24.6421 16.9295 25.0405 17.028C25.2705 17.1178 25.4942 17.2132 25.7111 17.3141C27.2287 18.0223 28.3959 18.9959 29.103 20.0355C29.9078 21.1745 30.3023 22.473 30.5115 23.6258C30.8167 25.1456 30.785 26.8212 30.7871 28.3002C30.7855 28.5279 30.7811 28.7544 30.7745 28.9793C30.7972 28.7457 30.8164 28.51 30.8314 28.2725C30.9152 26.7599 30.9803 25.0453 30.6522 23.4677C30.4316 22.3048 30.0035 21.0049 29.1581 19.8783C28.421 18.8603 27.2328 17.9233 25.7074 17.2572C25.5899 17.206 25.4706 17.1565 25.3494 17.1086C25.4695 17.1416 25.5878 17.1762 25.7045 17.2124C26.1765 17.3588 26.5802 17.5185 26.9131 17.6679C27.8903 18.1066 28.7205 18.6645 29.363 19.2944C30.3568 20.241 31.0258 21.4018 31.5008 22.515C32.1296 23.9508 32.4519 25.5421 32.7332 27.0786C32.8382 27.6762 32.9221 28.2755 32.9917 28.8736C33.0805 29.6143 33.1456 30.382 33.2047 31.0761C33.2132 31.1767 33.2211 31.2752 33.232 31.3749C33.2337 31.389 33.2351 31.4032 33.2373 31.4173C33.2378 31.42 33.2374 31.4231 33.2389 31.4255C33.2373 31.4232 33.238 31.42 33.2378 31.4172C33.2364 31.4031 33.2357 31.3891 33.235 31.375C33.2298 31.2757 33.2275 31.1779 33.2247 31.0777C33.2047 30.3837 33.1792 29.6241 33.124 28.8773C33.0756 28.2521 33.0054 27.6142 32.9051 26.9707C32.6553 25.4368 32.3258 23.8089 31.6564 22.3403C31.1531 21.2106 30.4452 20.0593 29.4194 19.1338C28.7375 18.502 27.8711 17.9595 26.8748 17.5464C26.5198 17.3992 26.1278 17.2599 25.6997 17.1378C25.4356 17.0625 25.1649 16.9957 24.8882 16.937C24.6942 16.8693 24.5084 16.8099 24.3344 16.7577C24.5965 16.7591 24.8622 16.7668 25.1306 16.783C25.3171 16.8109 25.5013 16.8425 25.6829 16.878C27.2282 17.1799 28.5828 17.7652 29.6329 18.5253C30.812 19.3625 31.7007 20.4515 32.379 21.5291C33.2801 22.9482 33.8761 24.548 34.3709 26.0506C34.4885 26.4143 34.5978 26.7771 34.6999 27.1378C34.6175 26.7674 34.5251 26.394 34.4213 26.0189C33.9904 24.4902 33.4164 22.8579 32.4906 21.4037C31.8034 20.3154 30.8887 19.2258 29.6768 18.4002C28.6022 17.655 27.2306 17.0989 25.68 16.8316C25.6623 16.8286 25.6446 16.8256 25.627 16.8226C25.6445 16.8243 25.6621 16.8261 25.6797 16.8279C27.0695 16.9692 28.513 17.3549 29.7944 18.0651C31.024 18.7369 32.0954 19.6901 33.0173 20.8124C33.093 20.9042 33.1674 20.9971 33.2407 21.0911C34.2352 22.366 34.9957 23.8089 35.6445 25.2511C36.174 26.4389 36.6042 27.6308 36.9681 28.7682C37.149 29.3338 37.3139 29.887 37.4643 30.4166C37.5474 30.7094 37.6265 30.9948 37.7 31.2725C37.7302 31.3905 37.7568 31.479 37.7757 31.5718C37.7776 31.5815 37.7803 31.5939 37.7797 31.5964C37.7792 31.6012 37.776 31.597 37.7731 31.5935C37.7773 31.6052 37.7822 31.6179 37.786 31.6236C37.7869 31.6244 37.7876 31.6244 37.7878 31.6234C37.7892 31.6207 37.789 31.6113 37.7869 31.5976C37.7757 31.5095 37.747 31.3774 37.7272 31.2827C37.6688 30.9987 37.6044 30.7084 37.5356 30.4114C37.4108 29.873 37.2695 29.3121 37.1096 28.7383C36.7839 27.5692 36.3792 26.3418 35.8592 25.1162C35.2394 23.6675 34.4891 22.2155 33.4886 20.9269C33.3997 20.8125 33.3091 20.6996 33.2167 20.5884C32.2702 19.4467 31.156 18.486 29.8785 17.8249C28.5521 17.1308 27.0775 16.7846 25.6711 16.6977C25.3265 16.6764 24.9861 16.6699 24.6521 16.6755C24.9779 16.6311 25.3154 16.595 25.663 16.5708C27.0572 16.4736 28.6061 16.5819 30.1452 17.0647C30.5942 17.2055 31.0377 17.3764 31.4743 17.5754C32.511 18.0476 33.4682 18.659 34.328 19.3407C35.1256 19.9731 35.8372 20.654 36.47 21.3272C36.9428 21.8302 37.3718 22.3292 37.7528 22.7931C37.8095 22.8622 37.8654 22.9307 37.9202 22.9984C37.9287 23.0082 37.9368 23.0183 37.9447 23.0285C37.9461 23.0302 37.9475 23.0318 37.9487 23.0336C36.972 21.6059 35.8483 20.2612 34.5249 19.1196C33.6469 18.3624 32.6737 17.7056 31.6253 17.2009C31.1833 17.0005 30.7327 16.8304 30.2758 16.6927C28.6642 16.2102 27.0603 16.1607 25.649 16.354C25.1109 16.4278 24.6023 16.5341 24.129 16.6593C24.0693 16.656 24.0089 16.653 23.9478 16.6504C24.0158 16.623 24.0856 16.5962 24.1551 16.5693C24.6165 16.4421 25.1127 16.3221 25.6405 16.2228C26.6241 16.0383 27.6981 15.9385 28.8333 15.989C29.3797 16.0132 29.9226 16.0715 30.461 16.1648C31.4438 16.339 32.3641 16.6173 33.2028 16.9391C33.6747 17.1202 34.1121 17.3117 34.5111 17.4999C34.5714 17.5284 34.6308 17.5567 34.6892 17.5849C34.6981 17.5893 34.7071 17.5936 34.716 17.5979C34.7176 17.5986 34.7194 17.5991 34.7207 17.6001C34.7193 17.5991 34.7176 17.5982 34.7163 17.5968C34.7168 17.5972 34.6903 17.579 34.6909 17.5794C34.6355 17.5413 34.579 17.5033 34.5214 17.4653C34.1403 17.2136 33.7132 16.9644 33.2434 16.7328C32.4475 16.3403 31.5536 16.0108 30.5885 15.8013C30.0744 15.6928 29.5537 15.6225 29.0304 15.5901C29.5503 15.5859 30.0848 15.6138 30.6311 15.6801C30.9244 15.7174 31.2186 15.765 31.5131 15.8226C33.1121 16.1355 34.6335 16.727 35.9926 17.4718C36.6613 17.8364 37.2896 18.2239 37.874 18.6148C38.5072 19.0384 39.0868 19.4647 39.6042 19.8653C39.6812 19.9249 39.7569 19.984 39.8313 20.0425C39.8425 20.0509 39.8536 20.0594 39.8645 20.0684C39.8664 20.07 39.8681 20.0713 39.87 20.0727C38.7426 19.0366 37.5067 18.0797 36.1717 17.2707C34.7079 16.3801 33.0979 15.7246 31.445 15.3827C31.2205 15.3413 30.9962 15.3062 30.7724 15.2773C28.8267 15.0406 27.0644 15.3201 25.6143 15.8166C25.1838 15.9647 24.7812 16.1295 24.4067 16.3032C24.0793 16.4273 23.7749 16.56 23.4934 16.6952C23.4863 16.6526 23.4795 16.6104 23.4725 16.5673C23.4819 16.5498 23.4913 16.5321 23.5013 16.5136C23.5482 16.4809 23.5972 16.4471 23.6484 16.4124C24.2251 16.1407 24.8765 15.8642 25.6016 15.6193C26.7961 15.2184 28.1709 14.928 29.695 14.8914C30.0933 14.8818 30.4948 14.8897 30.8992 14.9159C32.407 15.0256 33.8326 15.3607 35.1074 15.7928C35.6916 15.9909 36.2304 16.2045 36.7201 16.4175C36.7714 16.4397 36.822 16.462 36.8722 16.4843C36.8733 16.4848 36.9352 16.5121 36.9364 16.5126C36.947 16.5173 36.9576 16.5219 36.9682 16.5266C36.9701 16.5268 36.9721 16.528 36.9737 16.5288C36.9744 16.5292 36.9749 16.5292 36.9751 16.5295C36.9744 16.5291 36.974 16.5291 36.9735 16.5286C36.9719 16.5276 36.9697 16.5267 36.968 16.5252C36.9574 16.5187 36.9469 16.5122 36.9362 16.5058C36.9183 16.4948 36.9003 16.4839 36.8823 16.473C36.8289 16.4406 36.7748 16.4082 36.7199 16.3759C36.2291 16.0871 35.6824 15.8069 35.0838 15.5528C33.8676 15.0365 32.4947 14.6531 31.0426 14.5075C30.5185 14.4601 29.9999 14.4475 29.489 14.4679C29.489 14.4678 29.4891 14.4679 29.489 14.4679C28.0105 14.5269 26.6924 14.858 25.5819 15.3121C25.5435 15.3279 25.5054 15.3438 25.4676 15.3598C25.5037 15.3424 25.5416 15.3242 25.5814 15.3054C25.7576 15.2229 25.9125 15.1552 26.0388 15.102C27.6224 14.4347 29.3589 14.0805 31.1857 14.0996C33.4938 14.1469 35.7321 14.7223 37.6826 15.5744C39.4353 16.3302 41.0323 17.24 42.4087 18.1263C41.0736 17.1455 39.5256 16.1988 37.8167 15.4239C35.8431 14.5179 33.5746 13.9408 31.2525 13.9093C29.3903 13.9034 27.6321 14.2921 26.0436 14.9992C25.867 15.0779 25.7102 15.1526 25.5759 15.2191C25.0353 15.4889 24.6266 15.738 24.4413 15.853C24.2 15.9833 23.973 16.1165 23.7604 16.2503C24.3098 15.7223 24.9026 15.2343 25.5482 14.7895C27.3123 13.5858 29.4038 12.7976 31.7324 12.5415C33.8258 12.3363 35.9497 12.509 37.9186 12.9335C38.5185 13.0608 39.0941 13.211 39.6416 13.3751C39.806 13.4229 39.9699 13.4717 40.133 13.5213C40.2313 13.5512 40.3281 13.5812 40.4244 13.6102C40.4384 13.6142 40.4525 13.6185 40.4665 13.6226C40.4686 13.623 40.4711 13.6238 40.4734 13.6246C40.4734 13.6245 40.4734 13.6246 40.4734 13.6246C40.4709 13.6238 40.4686 13.6228 40.4663 13.6222C40.452 13.6175 40.4375 13.6123 40.4229 13.6068C40.325 13.5717 40.2212 13.5338 40.1233 13.4987C39.9747 13.4454 39.8244 13.3926 39.6724 13.3404C39.087 13.1343 38.4749 12.9481 37.8385 12.7898C35.9133 12.3173 33.8452 12.1288 31.8121 12.3145C29.4081 12.5641 27.2871 13.4036 25.5392 14.6499C24.8185 15.1692 24.172 15.7417 23.5852 16.3596C23.6455 16.2507 23.7068 16.1425 23.7691 16.0359C24.2964 15.3756 24.8743 14.7643 25.51 14.1976C27.0654 12.8279 28.8863 11.8343 30.8601 11.1807C31.3169 11.0263 31.7742 10.8951 32.2297 10.7844C32.2732 10.7739 32.3166 10.7635 32.3599 10.7533C32.3816 10.7485 32.4034 10.7437 32.425 10.739C32.4287 10.7382 32.4507 10.7334 32.4543 10.7326C32.4557 10.7318 32.4577 10.7319 32.459 10.7313C32.4571 10.7319 32.4551 10.7319 32.4533 10.732C32.4426 10.7334 32.432 10.7348 32.4212 10.7362C32.4019 10.7387 32.3826 10.7413 32.3632 10.744C32.3111 10.7518 32.259 10.7599 32.2069 10.7682C31.7077 10.8483 31.2094 10.9542 30.7144 11.088C28.7036 11.643 26.9375 12.6464 25.4958 13.9772C24.9814 14.4582 24.5125 14.9729 24.0845 15.5196C24.507 14.8581 24.9713 14.244 25.4761 13.672C27.6455 11.2488 30.3548 9.88645 32.9056 9.19819C36.4523 8.29137 39.6731 8.41407 41.0693 8.49883C42.7421 8.60039 43.4599 8.71919 43.7695 8.74056C44.0136 8.75371 43.9999 8.73084 43.9999 8.73084C43.9359 8.71954 43.872 8.70837 43.808 8.69735C40.1577 8.01658 36.3471 8.1261 32.9796 8.98731C29.7123 9.86966 27.2205 11.5721 25.4698 13.5772C24.8799 14.2626 24.3768 14.9731 23.9453 15.6999C23.7489 15.9594 23.5616 16.2257 23.3829 16.4983C23.374 16.5043 23.3585 16.5151 23.3497 16.5212C23.3983 16.2454 23.4586 15.9328 23.5335 15.5922C24.0339 14.4865 24.65 13.4395 25.3971 12.45C27.4913 9.72728 30.4019 7.77032 33.8118 6.61479C35.3539 6.11547 36.9072 5.75789 38.4013 5.50113C36.8977 5.62754 35.3886 5.89049 33.923 6.29781C30.3166 7.35849 27.3978 9.43531 25.3793 12.1739C24.6568 13.1735 24.0655 14.2315 23.5894 15.3439C23.7059 14.8414 23.8273 14.397 23.9419 14.0136C24.2936 12.8376 24.7398 11.7089 25.2791 10.6192C26.9116 7.3994 29.259 4.78602 31.9253 2.59942C32.5533 2.07508 33.2031 1.58659 33.7896 1.13472C33.873 1.07044 33.9569 1.00761 34.0301 0.941581C34.0407 0.932267 34.0512 0.922873 34.0592 0.912739C34.0613 0.910888 34.0657 0.909519 34.0626 0.90638C34.065 0.909297 34.0598 0.910463 34.0577 0.912277C34.047 0.921508 34.0335 0.929844 34.0205 0.938338C33.9282 0.997849 33.8261 1.05427 33.7243 1.11249C33.0047 1.52397 32.2516 1.97514 31.5255 2.48306C28.8334 4.39704 26.6859 6.96056 25.2353 9.94024C24.5973 11.2856 24.1134 12.6752 23.7656 14.0996C23.6403 14.6124 23.5259 15.1577 23.4272 15.736C23.3621 15.8989 23.3036 16.0525 23.2512 16.1948C23.2193 16.0124 23.1859 15.8268 23.1524 15.6378C23.1947 10.9909 24.0071 7.28395 24.8341 3.71697C25.0984 2.62369 24.724 4.17236 24.9883 3.07908C24.9303 3.21029 24.8737 3.34244 24.8186 3.4755C23.4748 6.84582 22.9598 10.89 23.0908 15.2869C22.7379 13.3155 22.2788 10.8826 21.7686 8.52065C21.2749 6.23467 20.7424 4.05386 20.1683 2.12309C20.0408 1.69446 19.9121 1.28092 19.7861 0.889542C19.7161 0.671569 19.6468 0.465227 19.5823 0.260118C19.5581 0.172637 19.5281 0.110568 19.521 0.0396466C19.52 0.0323678 19.5191 0.0228887 19.5223 0.020302C19.5257 0.0159963 19.5329 0.0178908 19.5393 0.0193762C19.5332 0.0115468 19.5263 0.00292891 19.5181 9.70025e-05C19.5162 -0.000203771 19.5144 0.000194276 19.5121 0.00129997C19.5121 0.00136544 19.512 0.00143043 19.512 0.0014959ZM19.4593 12.4865C19.4592 12.4865 19.4593 12.4865 19.4593 12.4865V12.4865ZM39.8713 20.0742C39.868 20.0714 39.8661 20.07 39.8647 20.068C39.8542 20.0582 39.8438 20.0479 39.8335 20.0374C39.763 19.969 39.691 19.9001 39.6176 19.8308C39.1236 19.3648 38.5614 18.8795 37.9342 18.402C37.4021 17.9969 36.8268 17.6 36.2107 17.2266C34.7922 16.3635 33.1658 15.7004 31.445 15.383C33.0977 15.7249 34.7076 16.3803 36.1713 17.2709C37.5064 18.0799 38.7424 19.0368 39.8699 20.0731M23.4009 15.8931C23.3682 16.0926 23.3389 16.2863 23.3127 16.4736C23.3062 16.4617 23.3 16.4502 23.2934 16.4382C23.2819 16.371 23.2705 16.3042 23.2584 16.2349C23.3049 16.12 23.3524 16.006 23.4009 15.8931ZM23.7102 16.1104C23.6615 16.1984 23.6138 16.2866 23.5671 16.375C23.529 16.4001 23.4909 16.4251 23.4536 16.4503C23.4534 16.4489 23.4531 16.4476 23.4529 16.4463C23.5372 16.3332 23.6229 16.2211 23.7102 16.1104ZM36.9374 21.5939C36.8335 21.4595 36.726 21.3244 36.6149 21.1888C36.0276 20.4714 35.3451 19.75 34.5592 19.0808C33.6951 18.3451 32.7095 17.6929 31.6251 17.2013C32.6734 17.7059 33.6466 18.3627 34.5244 19.1199C35.8479 20.2614 36.9717 21.6062 37.9483 23.034C37.9472 23.0322 37.9458 23.0303 37.9447 23.0285C37.9376 23.0177 37.9308 23.0067 37.9242 22.9955C37.8771 22.9217 37.8285 22.8473 37.7789 22.7722C37.5289 22.3932 37.2486 21.9966 36.9374 21.5939C36.9374 21.5939 36.9373 21.5939 36.9374 21.5939ZM23.4493 16.4512C23.4493 16.4517 23.4494 16.4524 23.4494 16.4531C23.4483 16.4538 23.4476 16.4546 23.4465 16.4551C23.4474 16.4537 23.4484 16.4525 23.4493 16.4512C23.4493 16.4512 23.4493 16.4512 23.4493 16.4512ZM22.4733 16.6919C22.5906 16.7113 22.7072 16.7318 22.8233 16.7535C22.8457 16.7729 22.868 16.7924 22.8903 16.8119C22.8824 16.8127 22.874 16.8141 22.8662 16.8151C22.7359 16.7724 22.6049 16.7314 22.4733 16.6919ZM23.4444 16.5102C23.4244 16.5319 23.4045 16.5535 23.3847 16.5752C23.3785 16.5798 23.3757 16.5819 23.3726 16.5842C23.3695 16.5788 23.3666 16.5733 23.3637 16.5678C23.3788 16.5471 23.3695 16.5597 23.3846 16.5391C23.4046 16.5293 23.4242 16.52 23.4444 16.5102C23.4444 16.5102 23.4443 16.5103 23.4444 16.5102ZM23.4909 16.5213C23.4843 16.5339 23.4778 16.5466 23.4713 16.5593C23.4704 16.5537 23.4689 16.5454 23.468 16.5398C23.4708 16.5368 23.4736 16.5341 23.4764 16.5313C23.4805 16.5285 23.4868 16.5241 23.4909 16.5213C23.4909 16.5212 23.4908 16.5213 23.4909 16.5213ZM23.4551 16.5531C23.4558 16.5646 23.4562 16.5757 23.4569 16.5872C23.452 16.5969 23.4471 16.6067 23.4421 16.6164C23.4415 16.6149 23.4408 16.6132 23.4403 16.6117C23.4405 16.6141 23.4408 16.6167 23.441 16.6191C23.433 16.6349 23.425 16.6507 23.417 16.6665C23.4086 16.6506 23.3999 16.6346 23.3914 16.6186C23.4125 16.5968 23.4338 16.5749 23.4553 16.553C23.4552 16.553 23.4551 16.5531 23.4551 16.5531ZM23.4575 16.596C23.4592 16.6225 23.4596 16.6326 23.4613 16.6591C23.4557 16.6463 23.45 16.6335 23.4443 16.6211C23.4486 16.6129 23.4532 16.6042 23.4575 16.596ZM22.1053 16.9492C22.4032 16.9331 22.6895 16.9246 22.9644 16.9228C22.8303 16.9444 22.6952 16.9675 22.5585 16.9929C22.4072 16.9764 22.2561 16.9619 22.1053 16.9492ZM23.4414 16.6266C23.4437 16.6563 23.4464 16.6864 23.4491 16.7167C23.4477 16.7174 23.4462 16.718 23.4447 16.7188C23.4374 16.7049 23.426 16.6838 23.4186 16.6699C23.4262 16.6554 23.4338 16.6409 23.4414 16.6266C23.4414 16.6266 23.4414 16.6266 23.4414 16.6266ZM22.8683 16.8158C22.8761 16.8152 22.8845 16.8144 22.8924 16.8138C22.8984 16.8191 22.9046 16.8245 22.9106 16.8297C22.8964 16.825 22.8824 16.8204 22.8683 16.8158C22.8683 16.8158 22.8683 16.8158 22.8683 16.8158ZM23.0141 16.7903C23.0198 16.7914 23.0255 16.7926 23.0312 16.7937C23.0274 16.7942 23.0236 16.7944 23.0199 16.7951C23.018 16.7934 23.0158 16.7917 23.0141 16.7903ZM23.0319 16.8029C23.0482 16.8017 23.0485 16.8017 23.0648 16.8005C23.1158 16.8108 23.1667 16.8214 23.2175 16.8321C23.1962 16.843 23.1751 16.8539 23.1542 16.8647C23.1541 16.8648 23.154 16.8648 23.154 16.8648C23.1136 16.8442 23.0729 16.8235 23.0319 16.8029C23.0319 16.8029 23.0319 16.8029 23.0319 16.8029ZM23.0802 16.7994C23.1443 16.7948 23.208 16.7907 23.2713 16.7869C23.2742 16.7913 23.2771 16.7959 23.2799 16.8003C23.2601 16.8103 23.2404 16.8203 23.2208 16.8304C23.1741 16.8199 23.1273 16.8095 23.0802 16.7994C23.0802 16.7994 23.0802 16.7994 23.0802 16.7994ZM22.988 16.8249C23.014 16.8368 23.0399 16.8488 23.0659 16.8608C23.0812 16.8729 23.0904 16.8801 23.099 16.8869C23.0962 16.8881 23.0935 16.8894 23.0906 16.8904C23.0655 16.8817 23.0403 16.8732 23.015 16.8646C23.0059 16.8513 22.9972 16.8383 22.988 16.8249C22.988 16.8249 22.988 16.8248 22.988 16.8249ZM23.9389 16.6542C23.9701 16.6634 24.0034 16.6733 24.0385 16.6838C24.0144 16.6903 23.9908 16.697 23.9669 16.7036C23.9088 16.7075 23.8499 16.7118 23.7904 16.7164C23.79 16.716 23.7895 16.7154 23.7893 16.715C23.8386 16.6947 23.8887 16.6744 23.9389 16.6542C23.9389 16.6542 23.9389 16.6542 23.9389 16.6542ZM23.9998 16.662C24.0316 16.6642 24.0631 16.6665 24.0941 16.6687C24.0815 16.6722 24.0714 16.6748 24.0587 16.6783C24.0442 16.6743 24.0231 16.6684 23.9998 16.662ZM23.0335 16.892C23.0338 16.892 23.034 16.8924 23.0342 16.8923C23.0341 16.8923 23.034 16.8924 23.0335 16.8923C23.0335 16.8923 23.0336 16.8924 23.0335 16.8923C23.0336 16.8923 23.0335 16.8921 23.0335 16.892ZM23.6472 16.7745C23.6518 16.7778 23.6599 16.7837 23.6645 16.787C23.6287 16.7958 23.6078 16.8006 23.572 16.8094C23.5708 16.809 23.5696 16.8086 23.5684 16.8082C23.5946 16.797 23.6207 16.7856 23.6472 16.7745C23.6472 16.7745 23.6472 16.7745 23.6472 16.7745ZM23.6993 16.7688C23.6994 16.7688 23.6996 16.7688 23.6996 16.7689C23.6996 16.7689 23.6998 16.7693 23.6998 16.7693C23.6996 16.7692 23.6993 16.7689 23.6991 16.7689C23.6991 16.7689 23.6993 16.7688 23.6993 16.7688ZM23.5658 16.8093C23.5667 16.8095 23.5674 16.8101 23.5685 16.8103C23.5647 16.8112 23.561 16.8121 23.5573 16.8132C23.5602 16.8121 23.5631 16.8108 23.5659 16.8095L23.5658 16.8093ZM23.3227 16.8665C23.3232 16.8676 23.3236 16.8682 23.3241 16.869C23.3239 16.8692 23.3236 16.8693 23.3234 16.8696C23.3204 16.8699 23.3175 16.8705 23.3145 16.871C23.3173 16.8696 23.3199 16.8679 23.3227 16.8665C23.3227 16.8664 23.3227 16.8666 23.3227 16.8665ZM22.553 17.067C22.6142 17.0527 22.675 17.0389 22.7357 17.0253C22.7449 17.0262 22.753 17.0271 22.7607 17.0278C22.7416 17.0361 22.7239 17.0436 22.7048 17.052C22.6548 17.0567 22.6042 17.0617 22.553 17.067ZM22.7709 17.0174C22.7811 17.0152 22.7904 17.013 22.8005 17.0108C22.7942 17.0137 22.7882 17.016 22.7819 17.0188C22.7783 17.0183 22.7745 17.0178 22.7709 17.0174C22.7709 17.0174 22.7709 17.0174 22.7709 17.0174ZM23.4632 16.8799C23.4637 16.8805 23.4641 16.881 23.4644 16.8815C23.4651 16.8885 23.466 16.8956 23.4665 16.9025C23.4626 16.8961 23.459 16.8896 23.4553 16.8831C23.4578 16.8821 23.4604 16.8808 23.4629 16.8798C23.463 16.8798 23.4632 16.8799 23.4632 16.8799ZM23.8578 16.8028C23.8679 16.8009 23.8781 16.7993 23.8882 16.7974C23.8933 16.7983 23.9004 16.7993 23.9055 16.8001C23.8903 16.8016 23.8747 16.8033 23.8594 16.8048C23.8589 16.8042 23.8585 16.8033 23.8578 16.8028C23.8578 16.8028 23.8578 16.8028 23.8578 16.8028ZM23.6669 16.8422C23.6871 16.8388 23.7066 16.8357 23.7268 16.8324C23.7474 16.8474 23.768 16.8625 23.7888 16.8778C23.7912 16.8808 23.795 16.8854 23.7975 16.8885C23.7541 16.8729 23.7106 16.8575 23.6669 16.8422ZM23.9921 16.779C24.0326 16.772 24.0718 16.7656 24.1126 16.7583C24.1665 16.7579 24.2216 16.7579 24.277 16.758C24.416 16.8025 24.5526 16.8487 24.6867 16.8965C24.452 16.8506 24.2199 16.8118 23.9921 16.779C23.9921 16.779 23.9921 16.7789 23.9921 16.779ZM23.7803 16.8238C23.7915 16.822 23.8024 16.8205 23.8135 16.8186C23.8188 16.8315 23.8239 16.8443 23.8293 16.8573C23.892 16.9002 23.7177 16.7809 23.7803 16.8238C23.7803 16.8238 23.7803 16.8237 23.7803 16.8238ZM23.383 16.958C23.3853 16.9611 23.3872 16.9644 23.3892 16.9675C23.3902 16.9706 23.3916 16.9737 23.3926 16.9768C23.3909 16.9795 23.3892 16.9822 23.3877 16.9848C23.3863 16.9756 23.3844 16.9672 23.383 16.958C23.383 16.958 23.3829 16.958 23.383 16.958ZM23.9041 16.863C24.032 16.9316 24.1575 17.0013 24.2805 17.0721C24.1781 17.031 24.0747 16.9909 23.9704 16.9519C23.9484 16.9222 23.9262 16.8921 23.9041 16.863ZM23.3937 16.9806C23.3988 16.9955 23.4056 17.0144 23.4106 17.0293C23.4063 17.0334 23.4018 17.0375 23.3975 17.0416C23.395 17.0273 23.3909 17.004 23.3884 16.9897C23.3903 16.9867 23.392 16.9836 23.3937 16.9806ZM23.3716 17.0186C23.3751 17.0314 23.3787 17.0433 23.3822 17.0561C23.3652 17.0721 23.348 17.0883 23.3307 17.1047C23.3267 17.1076 23.3204 17.1116 23.3163 17.1142C23.3346 17.0823 23.353 17.0505 23.3716 17.0186ZM23.4227 17.0645C23.4251 17.0712 23.4282 17.0804 23.4305 17.0872C23.4243 17.0949 23.4254 17.0935 23.4192 17.1012C23.4157 17.1027 23.4122 17.1044 23.4086 17.1057C23.4072 17.0979 23.406 17.0902 23.4045 17.0823C23.4104 17.0765 23.4162 17.0707 23.4222 17.0647C23.4225 17.0645 23.4224 17.0646 23.4227 17.0645C23.4227 17.0644 23.4227 17.0645 23.4227 17.0645ZM23.3929 17.0941C23.3938 17.0977 23.3966 17.1069 23.3976 17.1106C23.3851 17.1161 23.3725 17.1216 23.3598 17.1273C23.3709 17.1161 23.3819 17.105 23.3929 17.0941ZM23.4436 17.1252C23.4448 17.1286 23.446 17.1319 23.4471 17.1352C23.4405 17.1607 23.4341 17.1863 23.4274 17.2126C23.4236 17.1907 23.4194 17.167 23.4155 17.1445C23.4162 17.1436 23.4166 17.1428 23.4173 17.1419C23.4266 17.136 23.4343 17.1312 23.4436 17.1252C23.4436 17.1253 23.4436 17.1252 23.4436 17.1252ZM23.3535 17.1827C23.2629 17.2961 23.175 17.4097 23.0894 17.5233C23.1367 17.435 23.1849 17.3469 23.2341 17.259C23.2743 17.2331 23.3138 17.2081 23.3535 17.1827ZM23.473 17.2107C23.4832 17.2406 23.4931 17.2699 23.5036 17.3003C23.5064 17.3381 23.509 17.3756 23.5121 17.4144C23.46 17.5271 23.4098 17.6392 23.3613 17.7507C23.3971 17.5657 23.4344 17.3857 23.473 17.2107C23.473 17.2107 23.473 17.2107 23.473 17.2107Z" fill="url(#paint0_radial_29_171)"/>
<defs>
<radialGradient id="paint0_radial_29_171" cx="0" cy="0" r="1" gradientUnits="userSpaceOnUse" gradientTransform="translate(22 17) scale(22 17)">
<stop stop-color="white"/>
<stop offset="0.279914" stop-color="#E89DF8"/>
<stop offset="0.661591" stop-color="#4974F4"/>
<stop offset="1" stop-color="#C600F1"/>
</radialGradient>
</defs>
</svg>
